<mxfile host="app.diagrams.net" modified="2022-04-14T06:56:43.050Z" agent="5.0 (Windows NT 10.0; Win64; x64) AppleWebKit/537.36 (KHTML, like Gecko) Chrome/100.0.4896.88 Safari/537.36" etag="FECoU70bkbAQ8EiTePev" version="17.2.2" type="github">
  <diagram name="Page-1" id="c4acf3e9-155e-7222-9cf6-157b1a14988f">
    <mxGraphModel dx="1022" dy="1528" grid="1" gridSize="10" guides="1" tooltips="1" connect="1" arrows="1" fold="1" page="1" pageScale="1" pageWidth="850" pageHeight="1100" background="none" math="0" shadow="0">
      <root>
        <mxCell id="0" />
        <mxCell id="1" parent="0" />
        <mxCell id="lFhUcM0B0eL_cpz5k6Nn-100" value="" style="rounded=0;whiteSpace=wrap;html=1;" vertex="1" parent="1">
          <mxGeometry x="195" y="310" width="460" height="760" as="geometry" />
        </mxCell>
        <mxCell id="aZQCJ5djfpf6D2fegkD2-1" value="Admin" style="shape=umlActor;verticalLabelPosition=bottom;verticalAlign=top;html=1;outlineConnect=0;" parent="1" vertex="1">
          <mxGeometry x="90" y="-1000" width="40" height="80" as="geometry" />
        </mxCell>
        <mxCell id="aZQCJ5djfpf6D2fegkD2-7" value="Driver" style="shape=umlActor;verticalLabelPosition=bottom;verticalAlign=top;html=1;outlineConnect=0;" parent="1" vertex="1">
          <mxGeometry x="90" y="-830" width="40" height="80" as="geometry" />
        </mxCell>
        <mxCell id="aZQCJ5djfpf6D2fegkD2-8" value="Track Usage" style="ellipse;whiteSpace=wrap;html=1;" parent="1" vertex="1">
          <mxGeometry x="210" y="-950" width="120" height="40" as="geometry" />
        </mxCell>
        <mxCell id="aZQCJ5djfpf6D2fegkD2-9" value="Parking In" style="ellipse;whiteSpace=wrap;html=1;" parent="1" vertex="1">
          <mxGeometry x="200" y="-840" width="120" height="40" as="geometry" />
        </mxCell>
        <mxCell id="aZQCJ5djfpf6D2fegkD2-10" value="Parking Out" style="ellipse;whiteSpace=wrap;html=1;" parent="1" vertex="1">
          <mxGeometry x="200" y="-780" width="120" height="40" as="geometry" />
        </mxCell>
        <mxCell id="aZQCJ5djfpf6D2fegkD2-13" value="" style="endArrow=classic;html=1;rounded=0;" parent="1" edge="1">
          <mxGeometry width="50" height="50" relative="1" as="geometry">
            <mxPoint x="130" y="-950" as="sourcePoint" />
            <mxPoint x="210" y="-930" as="targetPoint" />
          </mxGeometry>
        </mxCell>
        <mxCell id="aZQCJ5djfpf6D2fegkD2-14" value="" style="endArrow=classic;html=1;rounded=0;entryX=0;entryY=0.5;entryDx=0;entryDy=0;" parent="1" target="aZQCJ5djfpf6D2fegkD2-9" edge="1">
          <mxGeometry width="50" height="50" relative="1" as="geometry">
            <mxPoint x="130" y="-780.36" as="sourcePoint" />
            <mxPoint x="210.0000000000001" y="-780.36" as="targetPoint" />
          </mxGeometry>
        </mxCell>
        <mxCell id="aZQCJ5djfpf6D2fegkD2-15" value="" style="endArrow=classic;html=1;rounded=0;entryX=0;entryY=0.5;entryDx=0;entryDy=0;" parent="1" target="aZQCJ5djfpf6D2fegkD2-10" edge="1">
          <mxGeometry width="50" height="50" relative="1" as="geometry">
            <mxPoint x="130" y="-775.5555555555555" as="sourcePoint" />
            <mxPoint x="210.0000000000001" y="-810" as="targetPoint" />
          </mxGeometry>
        </mxCell>
        <mxCell id="aZQCJ5djfpf6D2fegkD2-16" value="Manage ID Driver" style="ellipse;whiteSpace=wrap;html=1;" parent="1" vertex="1">
          <mxGeometry x="210" y="-1010" width="120" height="40" as="geometry" />
        </mxCell>
        <mxCell id="aZQCJ5djfpf6D2fegkD2-17" value="" style="endArrow=classic;html=1;rounded=0;entryX=-0.032;entryY=0.636;entryDx=0;entryDy=0;entryPerimeter=0;" parent="1" target="aZQCJ5djfpf6D2fegkD2-16" edge="1">
          <mxGeometry width="50" height="50" relative="1" as="geometry">
            <mxPoint x="130" y="-960" as="sourcePoint" />
            <mxPoint x="224.85129819891665" y="-927.8783859715834" as="targetPoint" />
          </mxGeometry>
        </mxCell>
        <mxCell id="aZQCJ5djfpf6D2fegkD2-18" value="Admin" style="shape=umlActor;verticalLabelPosition=bottom;verticalAlign=top;html=1;outlineConnect=0;" parent="1" vertex="1">
          <mxGeometry x="60" y="-602.31" width="50" height="100" as="geometry" />
        </mxCell>
        <mxCell id="aZQCJ5djfpf6D2fegkD2-22" value="Tapping Card" style="ellipse;whiteSpace=wrap;html=1;" parent="1" vertex="1">
          <mxGeometry x="350" y="-400" width="120" height="50" as="geometry" />
        </mxCell>
        <mxCell id="aZQCJ5djfpf6D2fegkD2-23" value="&lt;font style=&quot;font-size: 36px&quot;&gt;Use Case In&lt;/font&gt;" style="text;html=1;strokeColor=none;fillColor=none;align=center;verticalAlign=middle;whiteSpace=wrap;rounded=0;" parent="1" vertex="1">
          <mxGeometry x="100" y="-680" width="400" height="27.69" as="geometry" />
        </mxCell>
        <mxCell id="aZQCJ5djfpf6D2fegkD2-26" value="Register new ID" style="ellipse;whiteSpace=wrap;html=1;" parent="1" vertex="1">
          <mxGeometry x="220" y="-620" width="120" height="50" as="geometry" />
        </mxCell>
        <mxCell id="aZQCJ5djfpf6D2fegkD2-27" value="Entering Area" style="ellipse;whiteSpace=wrap;html=1;" parent="1" vertex="1">
          <mxGeometry x="330" y="-300" width="120" height="50" as="geometry" />
        </mxCell>
        <mxCell id="aZQCJ5djfpf6D2fegkD2-30" value="Barrier Gate" style="shape=umlActor;verticalLabelPosition=bottom;verticalAlign=top;html=1;outlineConnect=0;" parent="1" vertex="1">
          <mxGeometry x="30" y="-310" width="50" height="100" as="geometry" />
        </mxCell>
        <mxCell id="aZQCJ5djfpf6D2fegkD2-32" value="Saving data to Database" style="ellipse;whiteSpace=wrap;html=1;" parent="1" vertex="1">
          <mxGeometry x="220" y="-550" width="120" height="50" as="geometry" />
        </mxCell>
        <mxCell id="aZQCJ5djfpf6D2fegkD2-33" value="Gate Open" style="ellipse;whiteSpace=wrap;html=1;" parent="1" vertex="1">
          <mxGeometry x="130" y="-285" width="120" height="50" as="geometry" />
        </mxCell>
        <mxCell id="aZQCJ5djfpf6D2fegkD2-40" value="Card Ready" style="ellipse;whiteSpace=wrap;html=1;" parent="1" vertex="1">
          <mxGeometry x="350" y="-490" width="120" height="50" as="geometry" />
        </mxCell>
        <mxCell id="aZQCJ5djfpf6D2fegkD2-51" value="" style="endArrow=classic;html=1;rounded=0;fontSize=36;entryX=0;entryY=0.5;entryDx=0;entryDy=0;" parent="1" target="aZQCJ5djfpf6D2fegkD2-26" edge="1">
          <mxGeometry width="50" height="50" relative="1" as="geometry">
            <mxPoint x="120" y="-570" as="sourcePoint" />
            <mxPoint x="190" y="-600" as="targetPoint" />
          </mxGeometry>
        </mxCell>
        <mxCell id="aZQCJ5djfpf6D2fegkD2-52" value="" style="endArrow=classic;html=1;rounded=0;fontSize=36;entryX=0.5;entryY=0;entryDx=0;entryDy=0;" parent="1" target="aZQCJ5djfpf6D2fegkD2-32" edge="1">
          <mxGeometry width="50" height="50" relative="1" as="geometry">
            <mxPoint x="280" y="-560" as="sourcePoint" />
            <mxPoint x="230" y="-605" as="targetPoint" />
          </mxGeometry>
        </mxCell>
        <mxCell id="aZQCJ5djfpf6D2fegkD2-56" value="" style="endArrow=classic;html=1;rounded=0;fontSize=36;entryX=1;entryY=0.5;entryDx=0;entryDy=0;" parent="1" target="aZQCJ5djfpf6D2fegkD2-22" edge="1">
          <mxGeometry width="50" height="50" relative="1" as="geometry">
            <mxPoint x="520" y="-380" as="sourcePoint" />
            <mxPoint x="460" y="-480" as="targetPoint" />
          </mxGeometry>
        </mxCell>
        <mxCell id="aZQCJ5djfpf6D2fegkD2-57" value="" style="endArrow=classic;html=1;rounded=0;fontSize=36;entryX=1;entryY=0;entryDx=0;entryDy=0;" parent="1" edge="1">
          <mxGeometry width="50" height="50" relative="1" as="geometry">
            <mxPoint x="340" y="-350" as="sourcePoint" />
            <mxPoint x="332.6767035903579" y="-342.572760301912" as="targetPoint" />
          </mxGeometry>
        </mxCell>
        <mxCell id="aZQCJ5djfpf6D2fegkD2-59" value="" style="endArrow=classic;html=1;rounded=0;fontSize=36;entryX=0.455;entryY=-0.064;entryDx=0;entryDy=0;entryPerimeter=0;" parent="1" target="aZQCJ5djfpf6D2fegkD2-33" edge="1">
          <mxGeometry width="50" height="50" relative="1" as="geometry">
            <mxPoint x="185" y="-295" as="sourcePoint" />
            <mxPoint x="181" y="-295" as="targetPoint" />
          </mxGeometry>
        </mxCell>
        <mxCell id="aZQCJ5djfpf6D2fegkD2-61" value="" style="endArrow=classic;html=1;rounded=0;fontSize=36;entryX=1;entryY=0.5;entryDx=0;entryDy=0;" parent="1" target="aZQCJ5djfpf6D2fegkD2-27" edge="1">
          <mxGeometry width="50" height="50" relative="1" as="geometry">
            <mxPoint x="520" y="-360" as="sourcePoint" />
            <mxPoint x="480" y="-315" as="targetPoint" />
          </mxGeometry>
        </mxCell>
        <mxCell id="aZQCJ5djfpf6D2fegkD2-63" value="" style="endArrow=classic;html=1;rounded=0;fontSize=36;entryX=0;entryY=0.5;entryDx=0;entryDy=0;" parent="1" source="aZQCJ5djfpf6D2fegkD2-30" target="aZQCJ5djfpf6D2fegkD2-33" edge="1">
          <mxGeometry width="50" height="50" relative="1" as="geometry">
            <mxPoint x="360" y="-185" as="sourcePoint" />
            <mxPoint x="100" y="-230" as="targetPoint" />
          </mxGeometry>
        </mxCell>
        <mxCell id="aZQCJ5djfpf6D2fegkD2-66" value="" style="endArrow=none;dashed=1;html=1;dashPattern=1 3;strokeWidth=2;rounded=0;fontSize=36;exitX=0.5;exitY=1;exitDx=0;exitDy=0;startArrow=none;" parent="1" source="aZQCJ5djfpf6D2fegkD2-29" edge="1">
          <mxGeometry width="50" height="50" relative="1" as="geometry">
            <mxPoint x="410" y="-230" as="sourcePoint" />
            <mxPoint x="290" y="-300" as="targetPoint" />
            <Array as="points" />
          </mxGeometry>
        </mxCell>
        <mxCell id="aZQCJ5djfpf6D2fegkD2-67" value="" style="endArrow=none;dashed=1;html=1;dashPattern=1 3;strokeWidth=2;rounded=0;fontSize=36;exitX=1;exitY=0.5;exitDx=0;exitDy=0;entryX=0;entryY=0.5;entryDx=0;entryDy=0;" parent="1" edge="1">
          <mxGeometry width="50" height="50" relative="1" as="geometry">
            <mxPoint x="250" y="-260" as="sourcePoint" />
            <mxPoint x="330" y="-275" as="targetPoint" />
          </mxGeometry>
        </mxCell>
        <mxCell id="aZQCJ5djfpf6D2fegkD2-68" value="" style="endArrow=classic;html=1;rounded=0;fontSize=36;entryX=0.5;entryY=1;entryDx=0;entryDy=0;" parent="1" target="aZQCJ5djfpf6D2fegkD2-32" edge="1">
          <mxGeometry width="50" height="50" relative="1" as="geometry">
            <mxPoint x="280" y="-490" as="sourcePoint" />
            <mxPoint x="460" y="-400" as="targetPoint" />
          </mxGeometry>
        </mxCell>
        <mxCell id="aZQCJ5djfpf6D2fegkD2-69" value="" style="endArrow=none;dashed=1;html=1;dashPattern=1 3;strokeWidth=2;rounded=0;fontSize=36;entryX=0.5;entryY=1;entryDx=0;entryDy=0;" parent="1" target="aZQCJ5djfpf6D2fegkD2-26" edge="1">
          <mxGeometry width="50" height="50" relative="1" as="geometry">
            <mxPoint x="280" y="-550" as="sourcePoint" />
            <mxPoint x="450" y="-590" as="targetPoint" />
          </mxGeometry>
        </mxCell>
        <mxCell id="aZQCJ5djfpf6D2fegkD2-70" value="" style="endArrow=none;dashed=1;html=1;dashPattern=1 3;strokeWidth=2;rounded=0;fontSize=36;entryX=0;entryY=1;entryDx=0;entryDy=0;" parent="1" target="aZQCJ5djfpf6D2fegkD2-32" edge="1">
          <mxGeometry width="50" height="50" relative="1" as="geometry">
            <mxPoint x="186" y="-300" as="sourcePoint" />
            <mxPoint x="230" y="-500" as="targetPoint" />
          </mxGeometry>
        </mxCell>
        <mxCell id="aZQCJ5djfpf6D2fegkD2-71" value="" style="endArrow=none;dashed=1;html=1;dashPattern=1 3;strokeWidth=2;rounded=0;fontSize=36;entryX=0.057;entryY=0.692;entryDx=0;entryDy=0;entryPerimeter=0;" parent="1" target="aZQCJ5djfpf6D2fegkD2-22" edge="1">
          <mxGeometry width="50" height="50" relative="1" as="geometry">
            <mxPoint x="340" y="-350" as="sourcePoint" />
            <mxPoint x="367.57359312880703" y="-357.3223304703363" as="targetPoint" />
          </mxGeometry>
        </mxCell>
        <mxCell id="aZQCJ5djfpf6D2fegkD2-72" value="" style="endArrow=classic;html=1;rounded=0;fontSize=36;entryX=0;entryY=0.5;entryDx=0;entryDy=0;" parent="1" target="aZQCJ5djfpf6D2fegkD2-27" edge="1">
          <mxGeometry width="50" height="50" relative="1" as="geometry">
            <mxPoint x="320" y="-275" as="sourcePoint" />
            <mxPoint x="194.60000000000002" y="-278.20000000000005" as="targetPoint" />
          </mxGeometry>
        </mxCell>
        <mxCell id="aZQCJ5djfpf6D2fegkD2-73" value="" style="endArrow=classic;html=1;rounded=0;fontSize=36;entryX=0.5;entryY=0;entryDx=0;entryDy=0;" parent="1" target="aZQCJ5djfpf6D2fegkD2-22" edge="1">
          <mxGeometry width="50" height="50" relative="1" as="geometry">
            <mxPoint x="410" y="-410" as="sourcePoint" />
            <mxPoint x="480" y="-365.0000000000002" as="targetPoint" />
          </mxGeometry>
        </mxCell>
        <mxCell id="aZQCJ5djfpf6D2fegkD2-74" value="" style="endArrow=none;dashed=1;html=1;dashPattern=1 3;strokeWidth=2;rounded=0;fontSize=36;entryX=0.5;entryY=1;entryDx=0;entryDy=0;" parent="1" target="aZQCJ5djfpf6D2fegkD2-40" edge="1">
          <mxGeometry width="50" height="50" relative="1" as="geometry">
            <mxPoint x="410" y="-410" as="sourcePoint" />
            <mxPoint x="430" y="-430" as="targetPoint" />
          </mxGeometry>
        </mxCell>
        <mxCell id="aZQCJ5djfpf6D2fegkD2-29" value="Data Record" style="ellipse;whiteSpace=wrap;html=1;" parent="1" vertex="1">
          <mxGeometry x="230" y="-350" width="120" height="50" as="geometry" />
        </mxCell>
        <mxCell id="aZQCJ5djfpf6D2fegkD2-75" value="" style="endArrow=none;dashed=1;html=1;dashPattern=1 3;strokeWidth=2;rounded=0;fontSize=36;exitX=0.5;exitY=1;exitDx=0;exitDy=0;" parent="1" source="aZQCJ5djfpf6D2fegkD2-32" target="aZQCJ5djfpf6D2fegkD2-29" edge="1">
          <mxGeometry width="50" height="50" relative="1" as="geometry">
            <mxPoint x="280" y="-500" as="sourcePoint" />
            <mxPoint x="290" y="-300.0000000000002" as="targetPoint" />
            <Array as="points" />
          </mxGeometry>
        </mxCell>
        <mxCell id="aZQCJ5djfpf6D2fegkD2-76" value="" style="endArrow=classic;html=1;rounded=0;fontSize=36;" parent="1" edge="1">
          <mxGeometry width="50" height="50" relative="1" as="geometry">
            <mxPoint x="120" y="-540" as="sourcePoint" />
            <mxPoint x="160" y="-290" as="targetPoint" />
          </mxGeometry>
        </mxCell>
        <mxCell id="aZQCJ5djfpf6D2fegkD2-79" value="&lt;font style=&quot;font-size: 10px&quot;&gt;&amp;lt;&amp;lt;include&amp;gt;&amp;gt;&lt;/font&gt;" style="text;html=1;strokeColor=none;fillColor=none;align=center;verticalAlign=middle;whiteSpace=wrap;rounded=0;fontSize=36;" parent="1" vertex="1">
          <mxGeometry x="286" y="-586" width="60" height="30" as="geometry" />
        </mxCell>
        <mxCell id="aZQCJ5djfpf6D2fegkD2-80" value="&lt;font style=&quot;font-size: 10px&quot;&gt;&amp;lt;&amp;lt;include&amp;gt;&amp;gt;&lt;/font&gt;" style="text;html=1;strokeColor=none;fillColor=none;align=center;verticalAlign=middle;whiteSpace=wrap;rounded=0;fontSize=36;rotation=0;" parent="1" vertex="1">
          <mxGeometry x="286" y="-450" width="60" height="30" as="geometry" />
        </mxCell>
        <mxCell id="aZQCJ5djfpf6D2fegkD2-82" value="&lt;font style=&quot;font-size: 10px&quot;&gt;&amp;lt;&amp;lt;include&amp;gt;&amp;gt;&lt;/font&gt;" style="text;html=1;strokeColor=none;fillColor=none;align=center;verticalAlign=middle;whiteSpace=wrap;rounded=0;fontSize=36;rotation=0;" parent="1" vertex="1">
          <mxGeometry x="204" y="-395" width="60" height="30" as="geometry" />
        </mxCell>
        <mxCell id="aZQCJ5djfpf6D2fegkD2-83" value="&lt;font style=&quot;font-size: 10px&quot;&gt;&amp;lt;&amp;lt;include&amp;gt;&amp;gt;&lt;/font&gt;" style="text;html=1;strokeColor=none;fillColor=none;align=center;verticalAlign=middle;whiteSpace=wrap;rounded=0;fontSize=36;rotation=0;" parent="1" vertex="1">
          <mxGeometry x="350" y="-360" width="60" height="30" as="geometry" />
        </mxCell>
        <mxCell id="aZQCJ5djfpf6D2fegkD2-84" value="&lt;font style=&quot;font-size: 10px&quot;&gt;&amp;lt;&amp;lt;include&amp;gt;&amp;gt;&lt;/font&gt;" style="text;html=1;strokeColor=none;fillColor=none;align=center;verticalAlign=middle;whiteSpace=wrap;rounded=0;fontSize=36;rotation=0;" parent="1" vertex="1">
          <mxGeometry x="260" y="-303" width="60" height="30" as="geometry" />
        </mxCell>
        <mxCell id="aZQCJ5djfpf6D2fegkD2-87" value="&lt;font style=&quot;font-size: 36px&quot;&gt;Use Case Out&lt;/font&gt;" style="text;html=1;strokeColor=none;fillColor=none;align=center;verticalAlign=middle;whiteSpace=wrap;rounded=0;" parent="1" vertex="1">
          <mxGeometry x="330" y="-235" width="400" height="27.69" as="geometry" />
        </mxCell>
        <mxCell id="aZQCJ5djfpf6D2fegkD2-88" value="Driver" style="shape=umlActor;verticalLabelPosition=bottom;verticalAlign=top;html=1;outlineConnect=0;" parent="1" vertex="1">
          <mxGeometry x="540" y="-420" width="50" height="100" as="geometry" />
        </mxCell>
        <mxCell id="aZQCJ5djfpf6D2fegkD2-89" value="Admin" style="shape=umlActor;verticalLabelPosition=bottom;verticalAlign=top;html=1;outlineConnect=0;" parent="1" vertex="1">
          <mxGeometry x="300" y="-145" width="50" height="100" as="geometry" />
        </mxCell>
        <mxCell id="aZQCJ5djfpf6D2fegkD2-90" value="" style="endArrow=classic;html=1;rounded=0;fontSize=36;entryX=0;entryY=0.5;entryDx=0;entryDy=0;" parent="1" target="aZQCJ5djfpf6D2fegkD2-32" edge="1">
          <mxGeometry width="50" height="50" relative="1" as="geometry">
            <mxPoint x="120" y="-560" as="sourcePoint" />
            <mxPoint x="230" y="-585" as="targetPoint" />
          </mxGeometry>
        </mxCell>
        <mxCell id="aZQCJ5djfpf6D2fegkD2-91" value="Tapping Card" style="ellipse;whiteSpace=wrap;html=1;" parent="1" vertex="1">
          <mxGeometry x="600" y="35" width="120" height="50" as="geometry" />
        </mxCell>
        <mxCell id="aZQCJ5djfpf6D2fegkD2-92" value="Out from Area" style="ellipse;whiteSpace=wrap;html=1;" parent="1" vertex="1">
          <mxGeometry x="580" y="135" width="120" height="50" as="geometry" />
        </mxCell>
        <mxCell id="aZQCJ5djfpf6D2fegkD2-93" value="Saving data to Database" style="ellipse;whiteSpace=wrap;html=1;" parent="1" vertex="1">
          <mxGeometry x="470" y="-115" width="120" height="50" as="geometry" />
        </mxCell>
        <mxCell id="aZQCJ5djfpf6D2fegkD2-94" value="Gate Open" style="ellipse;whiteSpace=wrap;html=1;" parent="1" vertex="1">
          <mxGeometry x="380" y="150" width="120" height="50" as="geometry" />
        </mxCell>
        <mxCell id="aZQCJ5djfpf6D2fegkD2-95" value="Card Ready" style="ellipse;whiteSpace=wrap;html=1;" parent="1" vertex="1">
          <mxGeometry x="600" y="-55" width="120" height="50" as="geometry" />
        </mxCell>
        <mxCell id="aZQCJ5djfpf6D2fegkD2-96" value="" style="endArrow=classic;html=1;rounded=0;fontSize=36;entryX=1;entryY=0.5;entryDx=0;entryDy=0;" parent="1" target="aZQCJ5djfpf6D2fegkD2-91" edge="1">
          <mxGeometry width="50" height="50" relative="1" as="geometry">
            <mxPoint x="770" y="55" as="sourcePoint" />
            <mxPoint x="710" y="-45" as="targetPoint" />
          </mxGeometry>
        </mxCell>
        <mxCell id="aZQCJ5djfpf6D2fegkD2-97" value="" style="endArrow=classic;html=1;rounded=0;fontSize=36;entryX=1;entryY=0;entryDx=0;entryDy=0;" parent="1" edge="1">
          <mxGeometry width="50" height="50" relative="1" as="geometry">
            <mxPoint x="590" y="85" as="sourcePoint" />
            <mxPoint x="582.6767035903579" y="92.42723969808799" as="targetPoint" />
          </mxGeometry>
        </mxCell>
        <mxCell id="aZQCJ5djfpf6D2fegkD2-98" value="" style="endArrow=classic;html=1;rounded=0;fontSize=36;entryX=0.455;entryY=-0.064;entryDx=0;entryDy=0;entryPerimeter=0;" parent="1" target="aZQCJ5djfpf6D2fegkD2-94" edge="1">
          <mxGeometry width="50" height="50" relative="1" as="geometry">
            <mxPoint x="435" y="140" as="sourcePoint" />
            <mxPoint x="431" y="140" as="targetPoint" />
          </mxGeometry>
        </mxCell>
        <mxCell id="aZQCJ5djfpf6D2fegkD2-99" value="" style="endArrow=classic;html=1;rounded=0;fontSize=36;entryX=1;entryY=0.5;entryDx=0;entryDy=0;" parent="1" target="aZQCJ5djfpf6D2fegkD2-92" edge="1">
          <mxGeometry width="50" height="50" relative="1" as="geometry">
            <mxPoint x="770" y="75" as="sourcePoint" />
            <mxPoint x="730" y="120" as="targetPoint" />
          </mxGeometry>
        </mxCell>
        <mxCell id="aZQCJ5djfpf6D2fegkD2-100" value="" style="endArrow=none;dashed=1;html=1;dashPattern=1 3;strokeWidth=2;rounded=0;fontSize=36;exitX=0.5;exitY=1;exitDx=0;exitDy=0;startArrow=none;" parent="1" source="aZQCJ5djfpf6D2fegkD2-108" edge="1">
          <mxGeometry width="50" height="50" relative="1" as="geometry">
            <mxPoint x="660" y="205" as="sourcePoint" />
            <mxPoint x="540" y="135" as="targetPoint" />
            <Array as="points" />
          </mxGeometry>
        </mxCell>
        <mxCell id="aZQCJ5djfpf6D2fegkD2-101" value="" style="endArrow=none;dashed=1;html=1;dashPattern=1 3;strokeWidth=2;rounded=0;fontSize=36;exitX=1;exitY=0.5;exitDx=0;exitDy=0;entryX=0;entryY=0.5;entryDx=0;entryDy=0;" parent="1" edge="1">
          <mxGeometry width="50" height="50" relative="1" as="geometry">
            <mxPoint x="500" y="175" as="sourcePoint" />
            <mxPoint x="580" y="160" as="targetPoint" />
          </mxGeometry>
        </mxCell>
        <mxCell id="aZQCJ5djfpf6D2fegkD2-102" value="" style="endArrow=classic;html=1;rounded=0;fontSize=36;entryX=0.5;entryY=1;entryDx=0;entryDy=0;" parent="1" target="aZQCJ5djfpf6D2fegkD2-93" edge="1">
          <mxGeometry width="50" height="50" relative="1" as="geometry">
            <mxPoint x="530" y="-55" as="sourcePoint" />
            <mxPoint x="710" y="35" as="targetPoint" />
          </mxGeometry>
        </mxCell>
        <mxCell id="aZQCJ5djfpf6D2fegkD2-103" value="" style="endArrow=none;dashed=1;html=1;dashPattern=1 3;strokeWidth=2;rounded=0;fontSize=36;entryX=0;entryY=1;entryDx=0;entryDy=0;" parent="1" target="aZQCJ5djfpf6D2fegkD2-93" edge="1">
          <mxGeometry width="50" height="50" relative="1" as="geometry">
            <mxPoint x="436" y="135" as="sourcePoint" />
            <mxPoint x="480" y="-65" as="targetPoint" />
          </mxGeometry>
        </mxCell>
        <mxCell id="aZQCJ5djfpf6D2fegkD2-104" value="" style="endArrow=none;dashed=1;html=1;dashPattern=1 3;strokeWidth=2;rounded=0;fontSize=36;entryX=0.057;entryY=0.692;entryDx=0;entryDy=0;entryPerimeter=0;" parent="1" target="aZQCJ5djfpf6D2fegkD2-91" edge="1">
          <mxGeometry width="50" height="50" relative="1" as="geometry">
            <mxPoint x="590" y="85" as="sourcePoint" />
            <mxPoint x="617.573593128807" y="77.67766952966372" as="targetPoint" />
          </mxGeometry>
        </mxCell>
        <mxCell id="aZQCJ5djfpf6D2fegkD2-105" value="" style="endArrow=classic;html=1;rounded=0;fontSize=36;entryX=0;entryY=0.5;entryDx=0;entryDy=0;" parent="1" target="aZQCJ5djfpf6D2fegkD2-92" edge="1">
          <mxGeometry width="50" height="50" relative="1" as="geometry">
            <mxPoint x="570" y="160" as="sourcePoint" />
            <mxPoint x="444.6" y="156.79999999999995" as="targetPoint" />
          </mxGeometry>
        </mxCell>
        <mxCell id="aZQCJ5djfpf6D2fegkD2-106" value="" style="endArrow=classic;html=1;rounded=0;fontSize=36;entryX=0.5;entryY=0;entryDx=0;entryDy=0;" parent="1" target="aZQCJ5djfpf6D2fegkD2-91" edge="1">
          <mxGeometry width="50" height="50" relative="1" as="geometry">
            <mxPoint x="660" y="25" as="sourcePoint" />
            <mxPoint x="730" y="69.99999999999977" as="targetPoint" />
          </mxGeometry>
        </mxCell>
        <mxCell id="aZQCJ5djfpf6D2fegkD2-107" value="" style="endArrow=none;dashed=1;html=1;dashPattern=1 3;strokeWidth=2;rounded=0;fontSize=36;entryX=0.5;entryY=1;entryDx=0;entryDy=0;" parent="1" target="aZQCJ5djfpf6D2fegkD2-95" edge="1">
          <mxGeometry width="50" height="50" relative="1" as="geometry">
            <mxPoint x="660" y="25" as="sourcePoint" />
            <mxPoint x="680" y="5" as="targetPoint" />
          </mxGeometry>
        </mxCell>
        <mxCell id="aZQCJ5djfpf6D2fegkD2-108" value="Data Record" style="ellipse;whiteSpace=wrap;html=1;" parent="1" vertex="1">
          <mxGeometry x="480" y="85" width="120" height="50" as="geometry" />
        </mxCell>
        <mxCell id="aZQCJ5djfpf6D2fegkD2-109" value="" style="endArrow=none;dashed=1;html=1;dashPattern=1 3;strokeWidth=2;rounded=0;fontSize=36;exitX=0.5;exitY=1;exitDx=0;exitDy=0;" parent="1" source="aZQCJ5djfpf6D2fegkD2-93" target="aZQCJ5djfpf6D2fegkD2-108" edge="1">
          <mxGeometry width="50" height="50" relative="1" as="geometry">
            <mxPoint x="530" y="-65" as="sourcePoint" />
            <mxPoint x="540" y="134.99999999999977" as="targetPoint" />
            <Array as="points" />
          </mxGeometry>
        </mxCell>
        <mxCell id="aZQCJ5djfpf6D2fegkD2-110" value="" style="endArrow=classic;html=1;rounded=0;fontSize=36;" parent="1" edge="1">
          <mxGeometry width="50" height="50" relative="1" as="geometry">
            <mxPoint x="370" y="-85" as="sourcePoint" />
            <mxPoint x="410" y="145" as="targetPoint" />
          </mxGeometry>
        </mxCell>
        <mxCell id="aZQCJ5djfpf6D2fegkD2-111" value="&lt;font style=&quot;font-size: 10px&quot;&gt;&amp;lt;&amp;lt;include&amp;gt;&amp;gt;&lt;/font&gt;" style="text;html=1;strokeColor=none;fillColor=none;align=center;verticalAlign=middle;whiteSpace=wrap;rounded=0;fontSize=36;rotation=0;" parent="1" vertex="1">
          <mxGeometry x="536" y="-15" width="60" height="30" as="geometry" />
        </mxCell>
        <mxCell id="aZQCJ5djfpf6D2fegkD2-112" value="&lt;font style=&quot;font-size: 10px&quot;&gt;&amp;lt;&amp;lt;extend&amp;gt;&amp;gt;&lt;/font&gt;" style="text;html=1;strokeColor=none;fillColor=none;align=center;verticalAlign=middle;whiteSpace=wrap;rounded=0;fontSize=36;rotation=0;" parent="1" vertex="1">
          <mxGeometry x="660" y="-15" width="60" height="30" as="geometry" />
        </mxCell>
        <mxCell id="aZQCJ5djfpf6D2fegkD2-113" value="&lt;font style=&quot;font-size: 10px&quot;&gt;&amp;lt;&amp;lt;include&amp;gt;&amp;gt;&lt;/font&gt;" style="text;html=1;strokeColor=none;fillColor=none;align=center;verticalAlign=middle;whiteSpace=wrap;rounded=0;fontSize=36;rotation=0;" parent="1" vertex="1">
          <mxGeometry x="454" y="40" width="60" height="30" as="geometry" />
        </mxCell>
        <mxCell id="aZQCJ5djfpf6D2fegkD2-114" value="&lt;font style=&quot;font-size: 10px&quot;&gt;&amp;lt;&amp;lt;include&amp;gt;&amp;gt;&lt;/font&gt;" style="text;html=1;strokeColor=none;fillColor=none;align=center;verticalAlign=middle;whiteSpace=wrap;rounded=0;fontSize=36;rotation=0;" parent="1" vertex="1">
          <mxGeometry x="600" y="75" width="60" height="30" as="geometry" />
        </mxCell>
        <mxCell id="aZQCJ5djfpf6D2fegkD2-115" value="&lt;font style=&quot;font-size: 10px&quot;&gt;&amp;lt;&amp;lt;include&amp;gt;&amp;gt;&lt;/font&gt;" style="text;html=1;strokeColor=none;fillColor=none;align=center;verticalAlign=middle;whiteSpace=wrap;rounded=0;fontSize=36;rotation=0;" parent="1" vertex="1">
          <mxGeometry x="510" y="132" width="60" height="30" as="geometry" />
        </mxCell>
        <mxCell id="aZQCJ5djfpf6D2fegkD2-116" value="Driver" style="shape=umlActor;verticalLabelPosition=bottom;verticalAlign=top;html=1;outlineConnect=0;" parent="1" vertex="1">
          <mxGeometry x="790" y="15" width="50" height="100" as="geometry" />
        </mxCell>
        <mxCell id="aZQCJ5djfpf6D2fegkD2-118" value="" style="endArrow=classic;html=1;rounded=0;fontSize=36;entryX=0;entryY=0.5;entryDx=0;entryDy=0;" parent="1" edge="1">
          <mxGeometry width="50" height="50" relative="1" as="geometry">
            <mxPoint x="370" y="-105" as="sourcePoint" />
            <mxPoint x="470" y="-90" as="targetPoint" />
          </mxGeometry>
        </mxCell>
        <mxCell id="aZQCJ5djfpf6D2fegkD2-119" value="Barrier Gate" style="shape=umlActor;verticalLabelPosition=bottom;verticalAlign=top;html=1;outlineConnect=0;" parent="1" vertex="1">
          <mxGeometry x="280" y="125" width="50" height="100" as="geometry" />
        </mxCell>
        <mxCell id="aZQCJ5djfpf6D2fegkD2-120" value="" style="endArrow=classic;html=1;rounded=0;fontSize=36;entryX=0;entryY=0.5;entryDx=0;entryDy=0;" parent="1" edge="1">
          <mxGeometry width="50" height="50" relative="1" as="geometry">
            <mxPoint x="330" y="184" as="sourcePoint" />
            <mxPoint x="380" y="184" as="targetPoint" />
          </mxGeometry>
        </mxCell>
        <mxCell id="lFhUcM0B0eL_cpz5k6Nn-2" value="Admin" style="shape=umlActor;verticalLabelPosition=bottom;verticalAlign=top;html=1;outlineConnect=0;" vertex="1" parent="1">
          <mxGeometry x="115" y="525" width="50" height="100" as="geometry" />
        </mxCell>
        <mxCell id="lFhUcM0B0eL_cpz5k6Nn-4" value="Registering new ID" style="ellipse;whiteSpace=wrap;html=1;" vertex="1" parent="1">
          <mxGeometry x="305" y="450" width="120" height="50" as="geometry" />
        </mxCell>
        <mxCell id="lFhUcM0B0eL_cpz5k6Nn-5" value="Entering Area" style="ellipse;whiteSpace=wrap;html=1;" vertex="1" parent="1">
          <mxGeometry x="285" y="920" width="120" height="50" as="geometry" />
        </mxCell>
        <mxCell id="lFhUcM0B0eL_cpz5k6Nn-7" value="Manage users ID" style="ellipse;whiteSpace=wrap;html=1;" vertex="1" parent="1">
          <mxGeometry x="305" y="525" width="120" height="50" as="geometry" />
        </mxCell>
        <mxCell id="lFhUcM0B0eL_cpz5k6Nn-8" value="Open the gate" style="ellipse;whiteSpace=wrap;html=1;" vertex="1" parent="1">
          <mxGeometry x="315" y="380" width="120" height="50" as="geometry" />
        </mxCell>
        <mxCell id="lFhUcM0B0eL_cpz5k6Nn-26" value="Data Record (database)" style="ellipse;whiteSpace=wrap;html=1;" vertex="1" parent="1">
          <mxGeometry x="515" y="525" width="120" height="50" as="geometry" />
        </mxCell>
        <mxCell id="lFhUcM0B0eL_cpz5k6Nn-34" value="Visitors" style="shape=umlActor;verticalLabelPosition=bottom;verticalAlign=top;html=1;outlineConnect=0;" vertex="1" parent="1">
          <mxGeometry x="685" y="770" width="50" height="100" as="geometry" />
        </mxCell>
        <mxCell id="lFhUcM0B0eL_cpz5k6Nn-40" value="Gate Opened" style="ellipse;whiteSpace=wrap;html=1;" vertex="1" parent="1">
          <mxGeometry x="305" y="810" width="120" height="50" as="geometry" />
        </mxCell>
        <mxCell id="lFhUcM0B0eL_cpz5k6Nn-41" value="" style="endArrow=classic;html=1;rounded=0;entryX=0;entryY=0.5;entryDx=0;entryDy=0;exitX=1;exitY=0.3333333333333333;exitDx=0;exitDy=0;exitPerimeter=0;" edge="1" parent="1" source="lFhUcM0B0eL_cpz5k6Nn-2" target="lFhUcM0B0eL_cpz5k6Nn-4">
          <mxGeometry width="50" height="50" relative="1" as="geometry">
            <mxPoint x="229" y="525" as="sourcePoint" />
            <mxPoint x="279" y="475" as="targetPoint" />
          </mxGeometry>
        </mxCell>
        <mxCell id="lFhUcM0B0eL_cpz5k6Nn-42" value="" style="endArrow=classic;html=1;rounded=0;entryX=0;entryY=0.5;entryDx=0;entryDy=0;exitX=1;exitY=0.3333333333333333;exitDx=0;exitDy=0;exitPerimeter=0;" edge="1" parent="1" source="lFhUcM0B0eL_cpz5k6Nn-2" target="lFhUcM0B0eL_cpz5k6Nn-7">
          <mxGeometry width="50" height="50" relative="1" as="geometry">
            <mxPoint x="225" y="540" as="sourcePoint" />
            <mxPoint x="315" y="485" as="targetPoint" />
          </mxGeometry>
        </mxCell>
        <mxCell id="lFhUcM0B0eL_cpz5k6Nn-43" value="" style="endArrow=classic;html=1;rounded=0;entryX=0;entryY=0.5;entryDx=0;entryDy=0;exitX=1;exitY=0.3333333333333333;exitDx=0;exitDy=0;exitPerimeter=0;" edge="1" parent="1" source="lFhUcM0B0eL_cpz5k6Nn-2" target="lFhUcM0B0eL_cpz5k6Nn-8">
          <mxGeometry width="50" height="50" relative="1" as="geometry">
            <mxPoint x="225" y="560" as="sourcePoint" />
            <mxPoint x="325" y="495" as="targetPoint" />
          </mxGeometry>
        </mxCell>
        <mxCell id="lFhUcM0B0eL_cpz5k6Nn-44" value="" style="endArrow=none;dashed=1;html=1;dashPattern=1 3;strokeWidth=2;rounded=0;entryX=1;entryY=0.5;entryDx=0;entryDy=0;exitX=0.5;exitY=0;exitDx=0;exitDy=0;" edge="1" parent="1" source="lFhUcM0B0eL_cpz5k6Nn-26" target="lFhUcM0B0eL_cpz5k6Nn-4">
          <mxGeometry width="50" height="50" relative="1" as="geometry">
            <mxPoint x="475" y="550" as="sourcePoint" />
            <mxPoint x="525" y="500" as="targetPoint" />
          </mxGeometry>
        </mxCell>
        <mxCell id="lFhUcM0B0eL_cpz5k6Nn-45" value="" style="endArrow=none;dashed=1;html=1;dashPattern=1 3;strokeWidth=2;rounded=0;entryX=1;entryY=0.5;entryDx=0;entryDy=0;exitX=0;exitY=0.5;exitDx=0;exitDy=0;" edge="1" parent="1" source="lFhUcM0B0eL_cpz5k6Nn-26" target="lFhUcM0B0eL_cpz5k6Nn-7">
          <mxGeometry width="50" height="50" relative="1" as="geometry">
            <mxPoint x="545" y="535" as="sourcePoint" />
            <mxPoint x="435" y="485" as="targetPoint" />
          </mxGeometry>
        </mxCell>
        <mxCell id="lFhUcM0B0eL_cpz5k6Nn-47" value="" style="endArrow=classic;html=1;rounded=0;entryX=0;entryY=0.5;entryDx=0;entryDy=0;exitX=1;exitY=0.3333333333333333;exitDx=0;exitDy=0;exitPerimeter=0;" edge="1" parent="1" source="lFhUcM0B0eL_cpz5k6Nn-53" target="lFhUcM0B0eL_cpz5k6Nn-3">
          <mxGeometry width="50" height="50" relative="1" as="geometry">
            <mxPoint x="215" y="775" as="sourcePoint" />
            <mxPoint x="291" y="725" as="targetPoint" />
          </mxGeometry>
        </mxCell>
        <mxCell id="lFhUcM0B0eL_cpz5k6Nn-51" value="&amp;nbsp;View Record" style="ellipse;whiteSpace=wrap;html=1;" vertex="1" parent="1">
          <mxGeometry x="305" y="590" width="120" height="50" as="geometry" />
        </mxCell>
        <mxCell id="lFhUcM0B0eL_cpz5k6Nn-52" value="" style="endArrow=classic;html=1;rounded=0;entryX=0;entryY=0.5;entryDx=0;entryDy=0;exitX=1;exitY=0.3333333333333333;exitDx=0;exitDy=0;exitPerimeter=0;" edge="1" parent="1" source="lFhUcM0B0eL_cpz5k6Nn-2" target="lFhUcM0B0eL_cpz5k6Nn-51">
          <mxGeometry width="50" height="50" relative="1" as="geometry">
            <mxPoint x="225" y="550" as="sourcePoint" />
            <mxPoint x="315" y="560" as="targetPoint" />
          </mxGeometry>
        </mxCell>
        <mxCell id="lFhUcM0B0eL_cpz5k6Nn-53" value="Driver" style="shape=umlActor;verticalLabelPosition=bottom;verticalAlign=top;html=1;outlineConnect=0;" vertex="1" parent="1">
          <mxGeometry x="115" y="770" width="50" height="100" as="geometry" />
        </mxCell>
        <mxCell id="lFhUcM0B0eL_cpz5k6Nn-58" value="Release new card" style="ellipse;whiteSpace=wrap;html=1;" vertex="1" parent="1">
          <mxGeometry x="305" y="660" width="120" height="50" as="geometry" />
        </mxCell>
        <mxCell id="lFhUcM0B0eL_cpz5k6Nn-59" value="" style="endArrow=classic;html=1;rounded=0;entryX=0.017;entryY=0.68;entryDx=0;entryDy=0;exitX=1;exitY=0.3333333333333333;exitDx=0;exitDy=0;exitPerimeter=0;entryPerimeter=0;" edge="1" parent="1" source="lFhUcM0B0eL_cpz5k6Nn-2" target="lFhUcM0B0eL_cpz5k6Nn-58">
          <mxGeometry width="50" height="50" relative="1" as="geometry">
            <mxPoint x="215" y="590" as="sourcePoint" />
            <mxPoint x="295" y="715" as="targetPoint" />
          </mxGeometry>
        </mxCell>
        <mxCell id="lFhUcM0B0eL_cpz5k6Nn-3" value="Tapping Card" style="ellipse;whiteSpace=wrap;html=1;" vertex="1" parent="1">
          <mxGeometry x="305" y="740" width="120" height="50" as="geometry" />
        </mxCell>
        <mxCell id="lFhUcM0B0eL_cpz5k6Nn-66" value="" style="endArrow=classic;html=1;rounded=0;entryX=0;entryY=0.5;entryDx=0;entryDy=0;exitX=1;exitY=0.3333333333333333;exitDx=0;exitDy=0;exitPerimeter=0;" edge="1" parent="1" source="lFhUcM0B0eL_cpz5k6Nn-53" target="lFhUcM0B0eL_cpz5k6Nn-5">
          <mxGeometry width="50" height="50" relative="1" as="geometry">
            <mxPoint x="175" y="813.3333333333335" as="sourcePoint" />
            <mxPoint x="315" y="775" as="targetPoint" />
          </mxGeometry>
        </mxCell>
        <mxCell id="lFhUcM0B0eL_cpz5k6Nn-68" value="" style="endArrow=none;dashed=1;html=1;dashPattern=1 3;strokeWidth=2;rounded=0;entryX=0.5;entryY=1;entryDx=0;entryDy=0;exitX=0.5;exitY=0;exitDx=0;exitDy=0;" edge="1" parent="1" source="lFhUcM0B0eL_cpz5k6Nn-3" target="lFhUcM0B0eL_cpz5k6Nn-58">
          <mxGeometry width="50" height="50" relative="1" as="geometry">
            <mxPoint x="525" y="560" as="sourcePoint" />
            <mxPoint x="435" y="560" as="targetPoint" />
          </mxGeometry>
        </mxCell>
        <mxCell id="lFhUcM0B0eL_cpz5k6Nn-71" value="" style="endArrow=none;dashed=1;html=1;dashPattern=1 3;strokeWidth=2;rounded=0;entryX=0.5;entryY=0;entryDx=0;entryDy=0;exitX=0.5;exitY=1;exitDx=0;exitDy=0;" edge="1" parent="1" source="lFhUcM0B0eL_cpz5k6Nn-3" target="lFhUcM0B0eL_cpz5k6Nn-40">
          <mxGeometry width="50" height="50" relative="1" as="geometry">
            <mxPoint x="375" y="750" as="sourcePoint" />
            <mxPoint x="500" y="685" as="targetPoint" />
          </mxGeometry>
        </mxCell>
        <mxCell id="lFhUcM0B0eL_cpz5k6Nn-74" value="" style="endArrow=classic;html=1;rounded=0;entryX=1;entryY=0.5;entryDx=0;entryDy=0;exitX=0;exitY=0.3333333333333333;exitDx=0;exitDy=0;exitPerimeter=0;" edge="1" parent="1" source="lFhUcM0B0eL_cpz5k6Nn-34" target="lFhUcM0B0eL_cpz5k6Nn-3">
          <mxGeometry width="50" height="50" relative="1" as="geometry">
            <mxPoint x="715" y="903.3333333333335" as="sourcePoint" />
            <mxPoint x="435" y="935" as="targetPoint" />
          </mxGeometry>
        </mxCell>
        <mxCell id="lFhUcM0B0eL_cpz5k6Nn-39" value="Out from Area" style="ellipse;whiteSpace=wrap;html=1;" vertex="1" parent="1">
          <mxGeometry x="309" y="1000" width="146" height="50" as="geometry" />
        </mxCell>
        <mxCell id="lFhUcM0B0eL_cpz5k6Nn-76" value="" style="endArrow=none;dashed=1;html=1;dashPattern=1 3;strokeWidth=2;rounded=0;exitX=0.228;exitY=0.96;exitDx=0;exitDy=0;exitPerimeter=0;entryX=0;entryY=0;entryDx=0;entryDy=0;" edge="1" parent="1" source="lFhUcM0B0eL_cpz5k6Nn-40" target="lFhUcM0B0eL_cpz5k6Nn-5">
          <mxGeometry width="50" height="50" relative="1" as="geometry">
            <mxPoint x="375" y="800" as="sourcePoint" />
            <mxPoint x="375" y="820" as="targetPoint" />
          </mxGeometry>
        </mxCell>
        <mxCell id="lFhUcM0B0eL_cpz5k6Nn-77" value="" style="endArrow=none;dashed=1;html=1;dashPattern=1 3;strokeWidth=2;rounded=0;entryX=1;entryY=0;entryDx=0;entryDy=0;exitX=1;exitY=1;exitDx=0;exitDy=0;" edge="1" parent="1" source="lFhUcM0B0eL_cpz5k6Nn-40" target="lFhUcM0B0eL_cpz5k6Nn-39">
          <mxGeometry width="50" height="50" relative="1" as="geometry">
            <mxPoint x="342.3599999999999" y="868" as="sourcePoint" />
            <mxPoint x="301" y="930" as="targetPoint" />
          </mxGeometry>
        </mxCell>
        <mxCell id="lFhUcM0B0eL_cpz5k6Nn-78" value="" style="endArrow=classic;html=1;rounded=0;entryX=1;entryY=0.5;entryDx=0;entryDy=0;exitX=0;exitY=0.3333333333333333;exitDx=0;exitDy=0;exitPerimeter=0;" edge="1" parent="1" source="lFhUcM0B0eL_cpz5k6Nn-34" target="lFhUcM0B0eL_cpz5k6Nn-5">
          <mxGeometry width="50" height="50" relative="1" as="geometry">
            <mxPoint x="695" y="813.3333333333335" as="sourcePoint" />
            <mxPoint x="435" y="775" as="targetPoint" />
          </mxGeometry>
        </mxCell>
        <mxCell id="lFhUcM0B0eL_cpz5k6Nn-79" value="" style="endArrow=classic;html=1;rounded=0;entryX=1;entryY=0.5;entryDx=0;entryDy=0;exitX=0;exitY=0.3333333333333333;exitDx=0;exitDy=0;exitPerimeter=0;" edge="1" parent="1" source="lFhUcM0B0eL_cpz5k6Nn-34" target="lFhUcM0B0eL_cpz5k6Nn-39">
          <mxGeometry width="50" height="50" relative="1" as="geometry">
            <mxPoint x="695" y="813.3333333333335" as="sourcePoint" />
            <mxPoint x="395" y="925" as="targetPoint" />
          </mxGeometry>
        </mxCell>
        <mxCell id="lFhUcM0B0eL_cpz5k6Nn-80" value="" style="endArrow=classic;html=1;rounded=0;entryX=0;entryY=0.5;entryDx=0;entryDy=0;exitX=1;exitY=0.3333333333333333;exitDx=0;exitDy=0;exitPerimeter=0;" edge="1" parent="1" source="lFhUcM0B0eL_cpz5k6Nn-53" target="lFhUcM0B0eL_cpz5k6Nn-39">
          <mxGeometry width="50" height="50" relative="1" as="geometry">
            <mxPoint x="175" y="813.3333333333335" as="sourcePoint" />
            <mxPoint x="275" y="925" as="targetPoint" />
          </mxGeometry>
        </mxCell>
        <mxCell id="lFhUcM0B0eL_cpz5k6Nn-81" value="&lt;font style=&quot;font-size: 10px&quot;&gt;&amp;lt;&amp;lt;include&amp;gt;&amp;gt;&lt;/font&gt;" style="text;html=1;strokeColor=none;fillColor=none;align=center;verticalAlign=middle;whiteSpace=wrap;rounded=0;fontSize=36;rotation=0;" vertex="1" parent="1">
          <mxGeometry x="475" y="460" width="60" height="30" as="geometry" />
        </mxCell>
        <mxCell id="lFhUcM0B0eL_cpz5k6Nn-82" value="&lt;font style=&quot;font-size: 10px&quot;&gt;&amp;lt;&amp;lt;include&amp;gt;&amp;gt;&lt;/font&gt;" style="text;html=1;strokeColor=none;fillColor=none;align=center;verticalAlign=middle;whiteSpace=wrap;rounded=0;fontSize=36;rotation=0;" vertex="1" parent="1">
          <mxGeometry x="439" y="513" width="60" height="30" as="geometry" />
        </mxCell>
        <mxCell id="lFhUcM0B0eL_cpz5k6Nn-85" value="&lt;font style=&quot;font-size: 10px&quot;&gt;&amp;lt;&amp;lt;include&amp;gt;&amp;gt;&lt;/font&gt;" style="text;html=1;strokeColor=none;fillColor=none;align=center;verticalAlign=middle;whiteSpace=wrap;rounded=0;fontSize=36;rotation=0;" vertex="1" parent="1">
          <mxGeometry x="372" y="700" width="60" height="30" as="geometry" />
        </mxCell>
        <mxCell id="lFhUcM0B0eL_cpz5k6Nn-86" value="&lt;font style=&quot;font-size: 10px&quot;&gt;&amp;lt;&amp;lt;include&amp;gt;&amp;gt;&lt;/font&gt;" style="text;html=1;strokeColor=none;fillColor=none;align=center;verticalAlign=middle;whiteSpace=wrap;rounded=0;fontSize=36;rotation=0;" vertex="1" parent="1">
          <mxGeometry x="367" y="775" width="60" height="30" as="geometry" />
        </mxCell>
        <mxCell id="lFhUcM0B0eL_cpz5k6Nn-87" value="&lt;font style=&quot;font-size: 10px&quot;&gt;&amp;lt;&amp;lt;include&amp;gt;&amp;gt;&lt;/font&gt;" style="text;html=1;strokeColor=none;fillColor=none;align=center;verticalAlign=middle;whiteSpace=wrap;rounded=0;fontSize=36;rotation=0;" vertex="1" parent="1">
          <mxGeometry x="265" y="860" width="60" height="30" as="geometry" />
        </mxCell>
        <mxCell id="lFhUcM0B0eL_cpz5k6Nn-88" value="&lt;font style=&quot;font-size: 10px&quot;&gt;&amp;lt;&amp;lt;include&amp;gt;&amp;gt;&lt;/font&gt;" style="text;html=1;strokeColor=none;fillColor=none;align=center;verticalAlign=middle;whiteSpace=wrap;rounded=0;fontSize=36;rotation=0;" vertex="1" parent="1">
          <mxGeometry x="425" y="940" width="60" height="30" as="geometry" />
        </mxCell>
        <mxCell id="lFhUcM0B0eL_cpz5k6Nn-89" value="Exchange ID Card" style="ellipse;whiteSpace=wrap;html=1;" vertex="1" parent="1">
          <mxGeometry x="505" y="710" width="120" height="50" as="geometry" />
        </mxCell>
        <mxCell id="lFhUcM0B0eL_cpz5k6Nn-90" value="" style="endArrow=classic;html=1;rounded=0;exitX=0;exitY=0.3333333333333333;exitDx=0;exitDy=0;exitPerimeter=0;entryX=1;entryY=0.5;entryDx=0;entryDy=0;" edge="1" parent="1" source="lFhUcM0B0eL_cpz5k6Nn-34" target="lFhUcM0B0eL_cpz5k6Nn-89">
          <mxGeometry width="50" height="50" relative="1" as="geometry">
            <mxPoint x="695" y="813.3333333333335" as="sourcePoint" />
            <mxPoint x="635" y="730" as="targetPoint" />
          </mxGeometry>
        </mxCell>
        <mxCell id="lFhUcM0B0eL_cpz5k6Nn-91" value="" style="endArrow=none;dashed=1;html=1;dashPattern=1 3;strokeWidth=2;rounded=0;entryX=0;entryY=0.5;entryDx=0;entryDy=0;exitX=1;exitY=1;exitDx=0;exitDy=0;" edge="1" parent="1" target="lFhUcM0B0eL_cpz5k6Nn-89">
          <mxGeometry width="50" height="50" relative="1" as="geometry">
            <mxPoint x="426.99640687119296" y="685.357669529664" as="sourcePoint" />
            <mxPoint x="473.18879502661804" y="860.0023304703366" as="targetPoint" />
          </mxGeometry>
        </mxCell>
        <mxCell id="lFhUcM0B0eL_cpz5k6Nn-92" value="&lt;font style=&quot;font-size: 10px&quot;&gt;&amp;lt;&amp;lt;extend&amp;gt;&amp;gt;&lt;/font&gt;" style="text;html=1;strokeColor=none;fillColor=none;align=center;verticalAlign=middle;whiteSpace=wrap;rounded=0;fontSize=36;rotation=0;" vertex="1" parent="1">
          <mxGeometry x="455" y="670" width="60" height="30" as="geometry" />
        </mxCell>
        <mxCell id="lFhUcM0B0eL_cpz5k6Nn-93" value="&lt;font style=&quot;font-size: 24px&quot;&gt;Smart Barrier Gate&lt;/font&gt;" style="text;html=1;strokeColor=none;fillColor=none;align=center;verticalAlign=middle;whiteSpace=wrap;rounded=0;" vertex="1" parent="1">
          <mxGeometry x="225" y="320" width="400" height="27.69" as="geometry" />
        </mxCell>
        <mxCell id="lFhUcM0B0eL_cpz5k6Nn-94" value="" style="endArrow=none;dashed=1;html=1;dashPattern=1 3;strokeWidth=2;rounded=0;entryX=1;entryY=0;entryDx=0;entryDy=0;exitX=0.5;exitY=1;exitDx=0;exitDy=0;" edge="1" parent="1" source="lFhUcM0B0eL_cpz5k6Nn-26" target="lFhUcM0B0eL_cpz5k6Nn-58">
          <mxGeometry width="50" height="50" relative="1" as="geometry">
            <mxPoint x="585" y="535" as="sourcePoint" />
            <mxPoint x="435" y="485" as="targetPoint" />
          </mxGeometry>
        </mxCell>
        <mxCell id="lFhUcM0B0eL_cpz5k6Nn-95" value="&lt;font style=&quot;font-size: 10px&quot;&gt;&amp;lt;&amp;lt;include&amp;gt;&amp;gt;&lt;/font&gt;" style="text;html=1;strokeColor=none;fillColor=none;align=center;verticalAlign=middle;whiteSpace=wrap;rounded=0;fontSize=36;rotation=0;" vertex="1" parent="1">
          <mxGeometry x="465" y="575" width="60" height="30" as="geometry" />
        </mxCell>
        <mxCell id="lFhUcM0B0eL_cpz5k6Nn-97" style="edgeStyle=orthogonalEdgeStyle;rounded=0;orthogonalLoop=1;jettySize=auto;html=1;exitX=0.5;exitY=1;exitDx=0;exitDy=0;" edge="1" parent="1" source="lFhUcM0B0eL_cpz5k6Nn-88" target="lFhUcM0B0eL_cpz5k6Nn-88">
          <mxGeometry relative="1" as="geometry" />
        </mxCell>
      </root>
    </mxGraphModel>
  </diagram>
</mxfile>
